<?xml version="1.0" encoding="UTF-8" standalone="no"?>
<!-- Created with Inkscape (http://www.inkscape.org/) -->

<svg
   width="2000"
   height="2000"
   viewBox="0 0 529.16665 529.16666"
   version="1.1"
   id="svg1"
   inkscape:version="1.3.2 (091e20ef0f, 2023-11-25)"
   sodipodi:docname="Redot Logo - Black (no outline).svg"
   inkscape:export-filename="../../Logo (profile picture)/White on red (circle).png"
   inkscape:export-xdpi="96"
   inkscape:export-ydpi="96"
   xmlns:inkscape="http://www.inkscape.org/namespaces/inkscape"
   xmlns:sodipodi="http://sodipodi.sourceforge.net/DTD/sodipodi-0.dtd"
   xmlns="http://www.w3.org/2000/svg"
   xmlns:svg="http://www.w3.org/2000/svg"
   xmlns:rdf="http://www.w3.org/1999/02/22-rdf-syntax-ns#"
   xmlns:cc="http://creativecommons.org/ns#"
   xmlns:dc="http://purl.org/dc/elements/1.1/">
  <sodipodi:namedview
     id="namedview1"
     pagecolor="#ffffff"
     bordercolor="#000000"
     borderopacity="0.25"
     inkscape:showpageshadow="2"
     inkscape:pageopacity="0.0"
     inkscape:pagecheckerboard="true"
     inkscape:deskcolor="#d1d1d1"
     inkscape:document-units="px"
     inkscape:zoom="0.14883928"
     inkscape:cx="154.5291"
     inkscape:cy="1122.0156"
     inkscape:window-width="1920"
     inkscape:window-height="938"
     inkscape:window-x="0"
     inkscape:window-y="0"
     inkscape:window-maximized="1"
     inkscape:current-layer="layer1"
     showguides="true">
    <sodipodi:guide
       position="264.58143,443.13112"
       orientation="0,-1"
       id="guide1"
       inkscape:locked="false" />
    <sodipodi:guide
       position="91.392552,233.78423"
       orientation="1,0"
       id="guide2"
       inkscape:locked="false" />
    <sodipodi:guide
       position="264.58332,86.035545"
       orientation="0,-1"
       id="guide3"
       inkscape:locked="false" />
    <sodipodi:guide
       position="437.77408,233.78423"
       orientation="1,0"
       id="guide4"
       inkscape:locked="false" />
    <sodipodi:guide
       position="266.70318,529.16665"
       orientation="0,-1"
       id="guide5"
       inkscape:locked="false" />
    <sodipodi:guide
       position="0,276.99515"
       orientation="1,0"
       id="guide6"
       inkscape:locked="false" />
    <sodipodi:guide
       position="529.16665,266.69285"
       orientation="1,0"
       id="guide7"
       inkscape:locked="false" />
    <sodipodi:guide
       position="263.90619,0"
       orientation="0,-1"
       id="guide8"
       inkscape:locked="false" />
  </sodipodi:namedview>
  <defs
     id="defs1" />
  <g
     inkscape:label="Layer 1"
     inkscape:groupmode="layer"
     id="layer1">
    <path
       id="path24"
       style="fill:#000000;fill-opacity:1;stroke-width:0.471226"
       d="m 218.12995,86.036108 -8.82385,27.874022 c -9.61133,4.15621 -19.22282,8.31234 -28.83292,12.47132 -10.19721,-2.1473 -20.42027,-4.63468 -30.75351,-5.8809 -1.63124,1.83552 -42.90474,65.30545 -42.89308,65.96123 1.90158,4.6558 5.16715,8.66082 7.63708,13.01774 l 150.11966,52.72607 150.11965,-52.72607 c 2.47001,-4.35692 5.7355,-8.36193 7.63708,-13.01774 0.008,-0.6557 -41.26184,-64.12571 -42.89308,-65.96123 -10.33324,1.24622 -20.55622,3.7336 -30.75351,5.8809 -9.61018,-4.15898 -19.22167,-8.31511 -28.833,-12.47132 L 311.0367,86.036108 Z M 125.89658,218.65593 c -0.18594,-0.0571 -0.56027,0.22019 -0.57414,0.31398 -1.8082,14.74228 -5.342,44.23683 -5.342,44.23683 l 9.14696,39.53927 69.20143,31.43645 66.25409,-24.77359 66.25417,24.77359 69.20142,-31.43645 9.14697,-39.53927 c 0,0 -3.5338,-29.49455 -5.342,-44.23683 -0.0163,-0.12559 -0.6769,-0.58066 -0.6769,-0.1207 -45.302,16.10201 -92.55738,31.69635 -138.58407,47.57882 -46.02653,-15.88247 -93.2819,-31.47681 -138.58407,-47.57882 0,-0.11498 -0.0408,-0.17289 -0.10276,-0.19328 z m 34.80305,35.24034 c 21.73483,7.49672 43.64769,14.94158 65.55957,22.38554 a 35.281598,35.271915 0 0 1 -1.6579,6.7413 35.281598,35.271915 0 0 1 -45.31791,20.87005 35.281598,35.271915 0 0 1 -20.87574,-45.30552 35.281598,35.271915 0 0 1 2.29198,-4.69137 z m 207.76739,0 a 35.281598,35.271915 0 0 1 2.29207,4.69136 35.281598,35.271915 0 0 1 -20.87591,45.30552 35.281598,35.271915 0 0 1 -45.31791,-20.87004 35.281598,35.271915 0 0 1 -1.65782,-6.7413 c 21.91188,-7.44396 43.82483,-14.88882 65.55957,-22.38554 z m -260.4566,25.02413 -16.617917,16.4624 24.895117,87.27206 78.68357,32.26657 -4.23377,-67.89029 -74.61895,-34.71497 z m 313.14589,0 -8.10821,33.39577 -74.61887,34.71497 -4.23377,67.89029 78.68358,-32.26657 24.89511,-87.27207 z m -156.57298,44.95231 -59.00357,23.34559 3.58142,73.33946 55.42215,22.57279 55.42214,-22.57279 3.58151,-73.33946 z"
       inkscape:label="Symbol" />
  </g>
  <metadata
     id="metadata3">
    <rdf:RDF>
      <cc:Work
         rdf:about="">
        <dc:creator>
          <cc:Agent>
            <dc:title>A. Irsyad</dc:title>
          </cc:Agent>
        </dc:creator>
        <dc:description>Created for Redot Engine</dc:description>
      </cc:Work>
    </rdf:RDF>
  </metadata>
</svg>
