<?xml version="1.0" encoding="UTF-8" standalone="no"?>
<!-- Created with Inkscape (http://www.inkscape.org/) -->

<svg
   width="2000"
   height="2000"
   viewBox="0 0 529.16665 529.16666"
   version="1.1"
   id="svg1"
   inkscape:version="1.3.2 (091e20ef0f, 2023-11-25)"
   sodipodi:docname="Redot Logo - White (only outline).svg"
   inkscape:export-filename="../../Logo (profile picture)/White outline on black (circle).png"
   inkscape:export-xdpi="96"
   inkscape:export-ydpi="96"
   xmlns:inkscape="http://www.inkscape.org/namespaces/inkscape"
   xmlns:sodipodi="http://sodipodi.sourceforge.net/DTD/sodipodi-0.dtd"
   xmlns="http://www.w3.org/2000/svg"
   xmlns:svg="http://www.w3.org/2000/svg"
   xmlns:rdf="http://www.w3.org/1999/02/22-rdf-syntax-ns#"
   xmlns:cc="http://creativecommons.org/ns#"
   xmlns:dc="http://purl.org/dc/elements/1.1/">
  <sodipodi:namedview
     id="namedview1"
     pagecolor="#ffffff"
     bordercolor="#000000"
     borderopacity="0.25"
     inkscape:showpageshadow="2"
     inkscape:pageopacity="0.0"
     inkscape:pagecheckerboard="true"
     inkscape:deskcolor="#d1d1d1"
     inkscape:document-units="px"
     inkscape:zoom="0.16951539"
     inkscape:cx="294.95847"
     inkscape:cy="837.68204"
     inkscape:window-width="1920"
     inkscape:window-height="938"
     inkscape:window-x="0"
     inkscape:window-y="0"
     inkscape:window-maximized="1"
     inkscape:current-layer="layer1"
     showguides="true">
    <sodipodi:guide
       position="264.58542,443.13057"
       orientation="0,-1"
       id="guide1"
       inkscape:locked="false" />
    <sodipodi:guide
       position="91.392504,240.13532"
       orientation="1,0"
       id="guide2"
       inkscape:locked="false" />
    <sodipodi:guide
       position="437.77415,240.13532"
       orientation="1,0"
       id="guide3"
       inkscape:locked="false" />
    <sodipodi:guide
       position="264.57955,86.036086"
       orientation="0,-1"
       id="guide4"
       inkscape:locked="false" />
    <sodipodi:guide
       position="263.88803,529.16666"
       orientation="0,-1"
       id="guide5"
       inkscape:locked="false" />
    <sodipodi:guide
       position="0,240.14643"
       orientation="1,0"
       id="guide6"
       inkscape:locked="false" />
    <sodipodi:guide
       position="529.16665,238.21318"
       orientation="1,0"
       id="guide7"
       inkscape:locked="false" />
    <sodipodi:guide
       position="260.02154,0"
       orientation="0,-1"
       id="guide8"
       inkscape:locked="false" />
  </sodipodi:namedview>
  <defs
     id="defs1" />
  <g
     inkscape:label="Layer 1"
     inkscape:groupmode="layer"
     id="layer1">
    <path
       id="path77-6"
       style="color:#000000;fill:#ffffff;stroke-width:1.7221;-inkscape-stroke:none;paint-order:stroke fill markers"
       inkscape:label="Outline"
       d="m 212.99065,86.036085 -9.1493,29.153735 -17.82163,7.77627 -32.74216,-6.32726 -48.08436,74.62432 13.15733,22.64355 6.5014,2.23863 -0.67025,4.37647 -4.02145,39.77739 -28.767726,28.73154 26.522386,93.73477 146.65862,60.3632 146.67876,-60.3637 26.52188,-93.73478 -28.78737,-28.75893 -4.42349,-44.12594 6.5014,-2.23863 13.15009,-22.64252 -48.11072,-74.62434 -32.71528,6.32727 -17.82215,-7.77627 -9.14878,-29.154265 z m 8.85166,14.295755 h 85.46757 l 8.11733,25.64233 c 8.84168,3.82337 17.68329,7.64675 26.52393,11.47267 9.38074,-1.97533 18.78547,-4.2636 28.29127,-5.41 1.50064,1.68854 39.46554,60.07622 39.45854,60.67945 -1.74931,4.28296 -4.75366,7.96744 -7.02592,11.97548 L 264.57609,253.19576 126.47715,204.69177 c -2.27216,-4.00804 -5.2761,-7.69252 -7.0254,-11.97548 -0.0107,-0.6033 37.95791,-58.99091 39.45853,-60.67945 9.50581,1.1464 18.91007,3.43467 28.29076,5.41 8.84056,-3.82592 17.68222,-7.6493 26.52393,-11.47267 z m -84.8485,122.00071 h 0.001 c -3.2e-4,-1.1e-4 -7e-4,6.1e-4 -0.001,5.1e-4 0.0569,0.019 0.0946,0.0718 0.0946,0.17724 41.67463,14.81267 85.14619,29.15819 127.4872,43.76887 42.3411,-14.61068 85.81273,-28.9562 127.48719,-43.76887 0,-0.42311 0.6048,-0.005 0.6227,0.11111 1.66341,13.56183 4.9139,40.69465 4.9139,40.69465 l -8.41446,36.37294 -63.66014,28.91964 -60.94868,-22.7898 -60.9492,22.7898 -63.66013,-28.91964 -8.41447,-36.37294 c 0,0 3.25052,-27.13282 4.9139,-40.69464 0.0128,-0.0859 0.35614,-0.33958 0.52762,-0.28836 z m 32.01714,32.41866 a 32.456476,32.447569 0 0 0 -2.1084,4.31549 32.456476,32.447569 0 0 0 19.20398,41.67751 32.456476,32.447569 0 0 0 41.68941,-19.19879 32.456476,32.447569 0 0 0 1.52497,-6.20117 c -20.15729,-6.8479 -40.31554,-13.69663 -60.30996,-20.59304 z m 191.1308,0 c -19.99436,6.89642 -40.15267,13.74514 -60.30996,20.59305 a 32.456476,32.447569 0 0 0 1.52497,6.20116 32.456476,32.447569 0 0 0 41.68888,19.1988 32.456476,32.447569 0 0 0 19.20451,-41.67751 32.456476,32.447569 0 0 0 -2.1084,-4.3155 z m -239.60119,23.02028 7.45898,30.72162 68.64381,31.93496 3.89485,62.45402 -72.38312,-29.68292 -22.90194,-80.2834 z m 288.07157,0 15.28691,15.14428 -22.90143,80.2834 -72.38312,29.68292 3.89434,-62.45401 68.64381,-31.93497 z m -144.03604,41.35247 54.27932,21.47671 -3.29487,67.46662 -50.98445,20.76513 -50.98393,-20.76513 -3.29487,-67.46662 z" />
  </g>
  <metadata
     id="metadata3">
    <rdf:RDF>
      <cc:Work
         rdf:about="">
        <dc:creator>
          <cc:Agent>
            <dc:title>A. Irsyad</dc:title>
          </cc:Agent>
        </dc:creator>
        <dc:description>Created for Redot Engine</dc:description>
      </cc:Work>
    </rdf:RDF>
  </metadata>
</svg>
